<?xml version="1.0" standalone="no"?><!DOCTYPE svg PUBLIC "-//W3C//DTD SVG 1.1//EN" "http://www.w3.org/Graphics/SVG/1.1/DTD/svg11.dtd"><svg class="icon" width="200px" height="200.00px" viewBox="0 0 1024 1024" version="1.1" xmlns="http://www.w3.org/2000/svg"><path d="M237.44 943.36H101.12a94.08 94.08 0 0 1-94.08-94.08v-135.68a94.08 94.08 0 0 1 94.08-94.72h136.32a94.08 94.08 0 0 1 94.08 94.72v135.68a94.08 94.08 0 0 1-94.08 94.08z m-136.32-261.12a31.36 31.36 0 0 0-31.36 31.36v135.68a31.36 31.36 0 0 0 31.36 31.36h136.32a30.72 30.72 0 0 0 30.72-31.36v-135.68a30.72 30.72 0 0 0-30.72-31.36zM579.84 943.36H444.16a94.08 94.08 0 0 1-94.08-94.08v-135.68a94.08 94.08 0 0 1 94.08-94.72h135.68a94.08 94.08 0 0 1 94.08 94.72v135.68a94.08 94.08 0 0 1-94.08 94.08z m-135.68-261.12a31.36 31.36 0 0 0-31.36 31.36v135.68a31.36 31.36 0 0 0 31.36 31.36h135.68a31.36 31.36 0 0 0 31.36-31.36v-135.68a31.36 31.36 0 0 0-31.36-31.36zM922.88 943.36h-136.32a94.08 94.08 0 0 1-94.08-94.08v-135.68a94.08 94.08 0 0 1 94.08-94.72h136.32a94.08 94.08 0 0 1 94.08 94.72v135.68a94.08 94.08 0 0 1-94.08 94.08z m-136.32-261.12a30.72 30.72 0 0 0-30.72 31.36v135.68a30.72 30.72 0 0 0 30.72 31.36h136.32a31.36 31.36 0 0 0 31.36-31.36v-135.68a31.36 31.36 0 0 0-31.36-31.36zM922.88 576H101.12A88.96 88.96 0 0 1 12.16 485.76V169.6a88.96 88.96 0 0 1 88.96-88.96h821.76a88.96 88.96 0 0 1 88.96 88.96v316.16A88.96 88.96 0 0 1 922.88 576zM101.12 133.12a36.48 36.48 0 0 0-37.12 36.48v316.16a36.48 36.48 0 0 0 36.48 36.48h822.4a36.48 36.48 0 0 0 37.12-36.48V169.6a36.48 36.48 0 0 0-36.48-36.48z" fill="#4740EC" /></svg>