<?xml version="1.0" standalone="no"?><!DOCTYPE svg PUBLIC "-//W3C//DTD SVG 1.1//EN" "http://www.w3.org/Graphics/SVG/1.1/DTD/svg11.dtd"><svg class="icon" width="200px" height="200.00px" viewBox="0 0 1024 1024" version="1.1" xmlns="http://www.w3.org/2000/svg"><path d="M849.52 113.002h-61.544V64.259c0-6.982-5.818-12.671-13.059-12.671h-35.426c-7.37 0-13.059 5.689-13.059 12.67v48.744H296.275V64.259c0-6.982-5.818-12.671-13.059-12.671H247.79c-7.37 0-13.059 5.689-13.059 12.67v48.744h-61.414c-68.008 0-122.957 54.95-122.957 122.828v614.917c0 67.75 55.078 122.829 122.957 122.829H849.52c68.008 0 122.958-54.95 122.958-122.829V235.83c0-67.62-55.079-122.828-122.958-122.828z m61.413 737.745c0 33.875-27.41 61.415-61.414 61.415H173.317c-33.875 0-61.414-27.54-61.414-61.415v-491.83h799.03v491.83z m0-553.244h-799.03V235.96c0-33.875 27.41-61.415 61.414-61.415h61.544v48.744c0 6.982 5.818 12.67 13.058 12.67h35.426c7.37 0 13.059-5.688 13.059-12.67v-48.744h430.287v48.744c0 6.982 5.818 12.67 13.058 12.67h35.427c7.37 0 13.058-5.688 13.058-12.67v-48.744h61.544c33.875 0 61.414 27.54 61.414 61.415l-0.259 61.543z m0 0" fill="#4740EC" /><path d="M334.547 589.774l159.99 159.99-43.883 43.883-159.99-159.99z" fill="#4740EC" /><path d="M406.878 749.263l277.926-277.927 43.882 43.883-277.923 277.928z" fill="#4740EC" /></svg>